<svg xmlns="http://www.w3.org/2000/svg" fill="none" viewBox="0 0 300 300" id="Nextjs--Streamline-Svg-Logos" height="300" width="300">
  <desc>
    Nextjs Streamline Icon: https://streamlinehq.com
  </desc>
  <path fill="#000000" d="M249.56718750000002 120.4134375v9.4440625h-20.2971875V179.540625h-10.149375V129.85750000000002h-20.7196875v-9.4440625h51.166250000000005Zm2.28125 53.494375000000005c0.715 0 1.340625 0.2575 1.87 0.7725 0.5365624999999999 0.515 0.8043750000000001 1.1315625 0.8118749999999999 1.8499999999999999 -0.0075 0.4878125 -0.13125 0.935 -0.37875000000000003 1.3346875 -0.254375 0.4065625 -0.5771875 0.7250000000000001 -0.9834375 0.9553125000000001 -0.39875 0.2371875 -0.8387500000000001 0.3590625 -1.3196875000000001 0.3590625 -0.743125 0 -1.3756249999999999 -0.2571875 -1.905 -0.7721874999999999 -0.5290625 -0.515 -0.7909375 -1.1384375 -0.7840625 -1.876875 -0.006875 -0.7184375 0.255 -1.335 0.7840625 -1.8499999999999999 0.5293749999999999 -0.515 1.161875 -0.7725 1.905 -0.7725ZM50.6965625 179.540625 13.273625 133.0271875v46.48875H3.125V120.38875h12.68575L63.089375000000004 179.0978125l0.0009375 -49.2403125 -0.0043749999999999995 -9.4440625h51.165937500000005v9.4440625H73.23875v15.192187500000001h32.9828125v9.4440625H73.23875v15.603125h41.013125v9.44375H50.6965625Zm96.08187500000001 -25.137187500000003 6.65125 8.2696875 -13.6290625 16.9371875H126.48124999999999l20.2971875 -25.206875Zm-6.9778125 -33.9653125 17.171875 21.325625000000002 17.118125 -21.26 13.281875000000001 -0.020625 -23.7503125 29.5390625 23.7884375 29.543124999999996H174.09062500000002L126.519375 120.438125h13.28125Zm129.36937500000002 33.832812499999996h4.4971875v17.32625c-0.0065625 1.5925000000000002 -0.35125 2.954375 -1.024375 4.099375 -0.680625 1.1453125 -1.623125 2.019375 -2.833125 2.6359375000000003 -1.203125 0.6096874999999999 -2.613125 0.9215625 -4.2153125 0.9215625 -1.465 0 -2.7778125 -0.26437499999999997 -3.9468749999999995 -0.779375 -1.1690625 -0.5146875000000001 -2.0975 -1.2871875 -2.778125 -2.30375 -0.688125 -1.0162499999999999 -1.0250000000000001 -2.2834375000000002 -1.0250000000000001 -3.8012499999999996h4.5046875c0.0065625 0.6640625 0.15781250000000002 1.24 0.4465625 1.7209374999999998 0.28843749999999996 0.48125 0.6871875000000001 0.8471875 1.1965625 1.1046875 0.515 0.2575 1.1071875 0.38625 1.77375 0.38625 0.7221875 0 1.34125 -0.149375 1.8428125 -0.45406250000000004 0.501875 -0.298125 0.8871874999999999 -0.7453124999999999 1.1556250000000001 -1.341875 0.2609375 -0.589375 0.39906250000000004 -1.32125 0.405625 -2.1884375v-17.32625Zm23.001250000000002 6.7759374999999995c-0.1096875 -1.0503125 -0.59125 -1.87 -1.43 -2.4528125000000003 -0.84625 -0.5896875 -1.9390625000000001 -0.8809374999999999 -3.2803125000000004 -0.8809374999999999 -0.941875 0 -1.7528124999999999 0.14250000000000002 -2.426875 0.42031250000000003 -0.6740625 0.284375 -1.1965625 0.6637500000000001 -1.554375 1.145 -0.3571875 0.4809375 -0.53625 1.03 -0.5503125 1.6465625000000002 0 0.515 0.12375000000000001 0.9621875 0.3646875 1.335 0.240625 0.37937499999999996 0.5634374999999999 0.6978125 0.983125 0.9553125000000001 0.41250000000000003 0.26437499999999997 0.8731249999999999 0.4809375 1.3756249999999999 0.6571874999999999 0.5084375 0.17625 1.0178125 0.3253125 1.52625 0.4471875l2.3446875 0.5759375c0.9424999999999999 0.216875 1.8571875000000002 0.5084375 2.7303125 0.8809374999999999 0.8731249999999999 0.36593749999999997 1.6640625 0.8334374999999999 2.3581250000000002 1.3959375 0.695 0.5625 1.2449999999999999 1.24 1.650625 2.0328125 0.405625 0.7928124999999999 0.6121875 1.7209374999999998 0.6121875 2.7915625 0 1.4434375 -0.37125 2.710625 -1.12125 3.8081249999999995 -0.749375 1.0909375000000001 -1.8290625 1.9446875 -3.245625 2.56125 -1.4096875 0.61 -3.1146875 0.9215625 -5.1225 0.9215625 -1.939375 0 -3.6309375 -0.298125 -5.054375 -0.894375 -1.43 -0.589375 -2.544375 -1.456875 -3.3490625000000005 -2.5953125 -0.8043750000000001 -1.138125 -1.2375 -2.5271875 -1.299375 -4.1603125h4.45625c0.061875000000000006 0.85375 0.33687500000000004 1.5653125 0.8043750000000001 2.1412500000000003 0.474375 0.5690625 1.093125 0.989375 1.8496875 1.2737500000000002 0.7634375 0.2778125 1.615625 0.42031250000000003 2.558125 0.42031250000000003 0.9834375 0 1.8496875 -0.1490625 2.5990625 -0.44062499999999993 0.7425 -0.29125 1.3271875 -0.6978125 1.7468750000000002 -1.22625 0.42624999999999996 -0.521875 0.6396875 -1.1384375 0.64625 -1.843125 -0.0065625 -0.6437499999999999 -0.1996875 -1.1790625000000001 -0.5709375 -1.5993750000000002 -0.378125 -0.42 -0.900625 -0.7721874999999999 -1.568125 -1.056875 -0.673125 -0.2846875 -1.4575 -0.5421874999999999 -2.35125 -0.765625l-2.8465625 -0.7184375c-2.05625 -0.5215624999999999 -3.68625 -1.3143749999999998 -4.8759375 -2.378125 -1.1959374999999999 -1.0640625000000001 -1.7881250000000002 -2.4734374999999997 -1.7881250000000002 -4.241874999999999 0 -1.4500000000000002 0.39906250000000004 -2.7237500000000003 1.204375 -3.8150000000000004 0.796875 -1.090625 1.890625 -1.9378125 3.2728124999999997 -2.5409375 1.3890625 -0.6096874999999999 2.956875 -0.9078124999999999 4.703125 -0.9078124999999999 1.7743749999999998 0 3.328125 0.298125 4.669375 0.9078124999999999 1.340625 0.603125 2.393125 1.4434375 3.1559375000000003 2.5140625 0.7634375 1.0706250000000002 1.1621875 2.296875 1.183125 3.6859375h-4.36Z" stroke-width="3.125"></path>
</svg>